<svg width="1440" height="1024" viewBox="0 0 1440 1024" fill="none" xmlns="http://www.w3.org/2000/svg">
<g id="undraw_version_control_re_mg66 1" clip-path="url(#clip0)">
<g id="lines">
<path id="Vector" d="M114.841 -60.0438L114.841 738.95H117.66L117.66 -60.0438H114.841Z" fill="#3F3D56"/>
<path id="Vector_2" d="M128.925 276.974C128.926 276.613 129.076 276.268 129.341 276.014C129.606 275.76 129.965 275.618 130.339 275.62L199.908 275.924C201.777 275.934 203.565 276.659 204.883 277.941C206.2 279.222 206.937 280.954 206.934 282.758L206.725 348.986C206.724 349.347 206.575 349.693 206.31 349.947C206.044 350.201 205.686 350.342 205.312 350.341C204.938 350.339 204.58 350.194 204.316 349.938C204.053 349.682 203.906 349.335 203.907 348.974L204.115 282.746C204.117 281.663 203.675 280.624 202.884 279.855C202.094 279.086 201.021 278.651 199.9 278.645L130.33 278.341C129.956 278.339 129.598 278.194 129.335 277.938C129.071 277.682 128.924 277.335 128.925 276.974V276.974Z" fill="#3F3D56"/>
<path id="Vector_3" d="M117.66 666.312C117.66 666.673 117.511 667.019 117.247 667.274C116.983 667.529 116.624 667.673 116.25 667.673H46.6802C44.8119 667.671 43.0208 666.953 41.6997 665.678C40.3786 664.402 39.6355 662.673 39.6333 660.869L39.6333 594.641C39.6333 594.28 39.7818 593.934 40.0462 593.678C40.3105 593.423 40.6689 593.28 41.0427 593.28C41.4165 593.28 41.775 593.423 42.0393 593.678C42.3036 593.934 42.4521 594.28 42.4521 594.641L42.4521 660.869C42.4533 661.952 42.8992 662.989 43.6918 663.754C44.4845 664.52 45.5592 664.95 46.6802 664.951H116.25C116.624 664.951 116.983 665.095 117.247 665.35C117.511 665.605 117.66 665.951 117.66 666.312V666.312Z" fill="#3F3D56"/>
<path id="Vector_4" d="M116.25 142.466V145.188H46.6802C44.8119 145.186 43.0208 144.468 41.6997 143.193C40.3786 141.917 39.6355 140.188 39.6333 138.384L39.6333 72.1557H42.4521L42.4521 138.384C42.4533 139.467 42.8992 140.504 43.6918 141.27C44.4845 142.035 45.5592 142.465 46.6802 142.466H116.25Z" fill="#3F3D56"/>
<path id="Vector_5" d="M1387.54 -80.2419V200.605H1390.5V-80.2419H1387.54Z" fill="#3F3D56"/>
<path id="Vector_6" d="M1389.82 128.031C1389.82 128.391 1389.67 128.737 1389.41 128.993C1389.14 129.248 1388.79 129.391 1388.41 129.391H1318.84C1316.97 129.389 1315.18 128.672 1313.86 127.396C1312.54 126.121 1311.8 124.392 1311.79 122.588V56.3592C1311.79 55.9983 1311.94 55.6522 1312.21 55.397C1312.47 55.1419 1312.83 54.9986 1313.2 54.9986C1313.58 54.9986 1313.94 55.1419 1314.2 55.397C1314.46 55.6522 1314.61 55.9983 1314.61 56.3592V122.588C1314.61 123.67 1315.06 124.708 1315.85 125.473C1316.65 126.238 1317.72 126.669 1318.84 126.67H1388.41C1388.79 126.67 1389.14 126.813 1389.41 127.068C1389.67 127.324 1389.82 127.67 1389.82 128.031V128.031Z" fill="#3F3D56"/>
<path id="Vector_7" d="M1375.71 975.113H1137.55V978.602H1375.71V975.113Z" fill="#3F3D56"/>
<path id="Vector_8" d="M1409.73 896.616H1406.77V924.526V952.436H1409.73V896.616Z" fill="#3F3D56"/>
<path id="Vector_9" d="M1376.86 1040.96C1376.56 1040.96 1376.26 1040.78 1376.05 1040.47C1375.83 1040.16 1375.71 1039.74 1375.71 1039.3V957.257C1375.71 955.054 1376.32 952.942 1377.4 951.384C1378.48 949.826 1379.95 948.95 1381.48 948.947H1437.64C1437.95 948.947 1438.24 949.123 1438.46 949.434C1438.67 949.746 1438.79 950.169 1438.79 950.609C1438.79 951.05 1438.67 951.473 1438.46 951.785C1438.24 952.096 1437.95 952.271 1437.64 952.271H1381.48C1380.56 952.273 1379.68 952.799 1379.03 953.733C1378.38 954.668 1378.02 955.935 1378.02 957.257V1039.3C1378.02 1039.74 1377.9 1040.16 1377.68 1040.47C1377.46 1040.78 1377.17 1040.96 1376.86 1040.96V1040.96Z" fill="#3F3D56"/>
<path id="Vector_10" d="M1263.47 978.602C1263.81 978.602 1264.14 978.423 1264.38 978.104C1264.63 977.785 1264.76 977.352 1264.77 976.901V892.912C1264.76 890.657 1264.08 888.495 1262.86 886.9C1261.64 885.305 1259.99 884.408 1258.27 884.405H1195.06C1194.71 884.405 1194.38 884.584 1194.14 884.903C1193.9 885.222 1193.76 885.655 1193.76 886.106C1193.76 886.558 1193.9 886.991 1194.14 887.31C1194.38 887.629 1194.71 887.808 1195.06 887.808H1258.27C1259.3 887.809 1260.29 888.348 1261.03 889.305C1261.76 890.262 1262.17 891.559 1262.17 892.912V976.901C1262.17 977.352 1262.3 977.785 1262.55 978.104C1262.79 978.423 1263.12 978.602 1263.47 978.602V978.602Z" fill="#3F3D56"/>
</g>
<g id="blue-circles">
<path id="blue6" d="M1412.44 200.611C1412.44 187.684 1401.58 177.205 1388.19 177.205C1374.8 177.205 1363.95 187.684 1363.95 200.611C1363.95 213.537 1374.8 224.016 1388.19 224.016C1401.58 224.016 1412.44 213.537 1412.44 200.611Z" fill="#2C63FA"/>
<path id="blue5" d="M1433.07 879.9C1433.07 866.974 1422.22 856.495 1408.83 856.495C1395.44 856.495 1384.58 866.974 1384.58 879.9C1384.58 892.827 1395.44 903.306 1408.83 903.306C1422.22 903.306 1433.07 892.827 1433.07 879.9Z" fill="#2C63FA"/>
<path id="blue4" d="M1196.39 885.134C1196.39 872.207 1185.54 861.728 1172.15 861.728C1158.76 861.728 1147.9 872.207 1147.9 885.134C1147.9 898.06 1158.76 908.539 1172.15 908.539C1185.54 908.539 1196.39 898.06 1196.39 885.134Z" fill="#2C63FA"/>
<path id="blue3" d="M140.274 738.892C140.274 725.966 129.42 715.487 116.03 715.487C102.641 715.487 91.7862 725.966 91.7862 738.892C91.7862 751.819 102.641 762.298 116.03 762.298C129.42 762.298 140.274 751.819 140.274 738.892Z" fill="#2C63FA"/>
<path id="blue2" d="M140.274 501.046C140.274 488.119 129.42 477.64 116.03 477.64C102.641 477.64 91.7862 488.119 91.7862 501.046C91.7862 513.972 102.641 524.451 116.03 524.451C129.42 524.451 140.274 513.972 140.274 501.046Z" fill="#2C63FA"/>
<path id="blue1" d="M228.958 351.351C228.958 338.424 218.103 327.945 204.713 327.945C191.324 327.945 180.469 338.424 180.469 351.351C180.469 364.277 191.324 374.757 204.713 374.757C218.103 374.757 228.958 364.277 228.958 351.351Z" fill="#2C63FA"/>
</g>
<g id="gray-circles">
<path id="gray6" d="M1336.92 53.2468C1336.92 40.3202 1326.07 29.8411 1312.68 29.8411C1299.29 29.8411 1288.43 40.3202 1288.43 53.2468C1288.43 66.1734 1299.29 76.6525 1312.68 76.6525C1326.07 76.6525 1336.92 66.1734 1336.92 53.2468Z" fill="#E6E6E6"/>
<path id="gray5" d="M1147.58 975.842C1147.58 962.915 1136.72 952.436 1123.33 952.436C1109.94 952.436 1099.09 962.915 1099.09 975.842C1099.09 988.768 1109.94 999.247 1123.33 999.247C1136.72 999.247 1147.58 988.768 1147.58 975.842Z" fill="#E6E6E6"/>
<path id="gray4" d="M64.76 69.0432C64.76 56.1166 53.9056 45.6375 40.5159 45.6375C27.1263 45.6375 16.2718 56.1166 16.2718 69.0432C16.2718 81.9698 27.1263 92.4489 40.5159 92.4489C53.9056 92.4489 64.76 81.9698 64.76 69.0432Z" fill="#E6E6E6"/>
<path id="gray3" d="M140.202 276.342C140.202 263.415 129.348 252.936 115.958 252.936C102.568 252.936 91.714 263.415 91.714 276.342C91.714 289.269 102.568 299.748 115.958 299.748C129.348 299.748 140.202 289.269 140.202 276.342Z" fill="#E6E6E6"/>
<path id="gray2" d="M140.274 276.383C140.274 263.456 129.42 252.977 116.03 252.977C102.641 252.977 91.7862 263.456 91.7862 276.383C91.7862 289.309 102.641 299.788 116.03 299.788C129.42 299.788 140.274 289.309 140.274 276.383Z" fill="#2C63FA"/>
<path id="gray1" d="M64.76 591.528C64.76 578.602 53.9056 568.123 40.5159 568.123C27.1263 568.123 16.2718 578.602 16.2718 591.528C16.2718 604.455 27.1263 614.934 40.5159 614.934C53.9056 614.934 64.76 604.455 64.76 591.528Z" fill="#E6E6E6"/>
</g>
</g>
<defs>
<clipPath id="clip0">
<rect width="1440" height="1024" fill="white"/>
</clipPath>
</defs>
</svg>
