<svg width="232" height="401" viewBox="0 0 232 401" fill="none" xmlns="http://www.w3.org/2000/svg">
<g id="bottom_right" clip-path="url(#clip0)">
<rect width="401" height="232" transform="translate(232) rotate(90)" fill="white"/>
<path id="Vector" d="M118 401L118 39H115L115 401H118Z" fill="#3F3D56"/>
<path id="Vector_2" d="M5 214L118 214V211L5 211V214Z" fill="#3F3D56"/>
<g id="gray-circles2">
<path id="gray5" d="M116.653 48.4882C129.58 48.4882 140.059 37.6337 140.059 24.2441C140.059 10.8544 129.58 0 116.653 0C103.726 0 93.2473 10.8544 93.2473 24.2441C93.2473 37.6337 103.726 48.4882 116.653 48.4882Z" fill="#E6E6E6"/>
</g>
<path id="Vector_3" d="M114.893 165.378C114.893 165.723 115.072 166.053 115.391 166.296C115.71 166.54 116.143 166.677 116.594 166.677H200.583C202.838 166.675 205 165.99 206.595 164.773C208.19 163.555 209.087 161.905 209.09 160.183V96.9712C209.09 96.6267 208.911 96.2963 208.591 96.0528C208.272 95.8092 207.84 95.6725 207.388 95.6725C206.937 95.6725 206.504 95.8092 206.185 96.0528C205.866 96.2963 205.687 96.6267 205.687 96.9712V160.183C205.685 161.216 205.147 162.207 204.19 162.937C203.233 163.667 201.936 164.078 200.583 164.079H116.594C116.143 164.079 115.71 164.216 115.391 164.46C115.072 164.703 114.893 165.034 114.893 165.378V165.378Z" fill="#3F3D56"/>
<g id="blue-circles2">
<path id="blue4" d="M208.361 98.3036C221.288 98.3036 231.767 87.4492 231.767 74.0596C231.767 60.67 221.288 49.8156 208.361 49.8156C195.435 49.8156 184.955 60.67 184.955 74.0596C184.955 87.4492 195.435 98.3036 208.361 98.3036Z" fill="#2C63FA"/>
<path id="blue5" d="M23.4057 235.488C36.3323 235.488 46.8114 224.634 46.8114 211.244C46.8114 197.854 36.3323 187 23.4057 187C10.4791 187 0 197.854 0 211.244C0 224.634 10.4791 235.488 23.4057 235.488Z" fill="#2C63FA"/>
</g>
</g>
<defs>
<clipPath id="clip0">
<rect width="401" height="232" fill="white" transform="translate(232) rotate(90)"/>
</clipPath>
</defs>
</svg>
