<svg width="199" height="745" viewBox="0 0 199 745" fill="none" xmlns="http://www.w3.org/2000/svg">
<g id="top-left">
<path id="Vector" d="M98.5692 0.000183105L98.5692 723.587H101.388L101.388 0.000183105H98.5692Z" fill="#3F3D56"/>
<path id="Vector_2" d="M98.6533 305.211C98.6545 304.884 98.804 304.571 99.0691 304.341C99.3342 304.111 99.6932 303.983 100.067 303.984L169.637 304.26C171.505 304.269 173.294 304.926 174.611 306.086C175.928 307.247 176.665 308.816 176.662 310.449L176.454 370.427C176.452 370.754 176.303 371.067 176.038 371.297C175.773 371.527 175.414 371.655 175.04 371.654C174.666 371.652 174.308 371.521 174.045 371.289C173.781 371.057 173.634 370.743 173.635 370.416L173.843 310.438C173.845 309.458 173.403 308.516 172.613 307.82C171.822 307.124 170.749 306.73 169.628 306.724L100.058 306.449C99.6846 306.447 99.3266 306.316 99.0631 306.084C98.7996 305.852 98.6522 305.538 98.6533 305.211V305.211Z" fill="#3F3D56"/>
<path id="Vector_3" d="M101.388 657.804C101.388 658.131 101.239 658.444 100.975 658.675C100.711 658.907 100.352 659.036 99.9784 659.036H30.4084C28.5401 659.035 26.749 658.385 25.4279 657.23C24.1068 656.075 23.3636 654.509 23.3615 652.875L23.3615 592.897C23.3615 592.57 23.51 592.257 23.7743 592.026C24.0386 591.795 24.3971 591.665 24.7709 591.665C25.1447 591.665 25.5032 591.795 25.7675 592.026C26.0318 592.257 26.1803 592.57 26.1803 592.897L26.1803 652.875C26.1815 653.855 26.6273 654.795 27.42 655.488C28.2127 656.181 29.2874 656.571 30.4084 656.572H99.9784C100.352 656.572 100.711 656.702 100.975 656.933C101.239 657.164 101.388 657.477 101.388 657.804Z" fill="#3F3D56"/>
<path id="Vector_4" d="M99.9784 183.398V185.862H30.4084C28.5401 185.86 26.749 185.211 25.4279 184.056C24.1068 182.901 23.3636 181.335 23.3615 179.701L23.3615 119.723H26.1803L26.1803 179.701C26.1815 180.681 26.6273 181.621 27.42 182.314C28.2127 183.007 29.2874 183.397 30.4084 183.398H99.9784Z" fill="#3F3D56"/>
<g id="blue-circles1">
<path id="blue3" d="M124.002 723.534C124.002 711.828 113.148 702.338 99.7584 702.338C86.3688 702.338 75.5143 711.828 75.5143 723.534C75.5143 735.241 86.3688 744.731 99.7584 744.731C113.148 744.731 124.002 735.241 124.002 723.534Z" fill="#2C63FA"/>
<path id="blue1" d="M198.686 372.568C198.686 360.862 187.831 351.371 174.442 351.371C161.052 351.371 150.198 360.862 150.198 372.568C150.198 384.275 161.052 393.765 174.442 393.765C187.831 393.765 198.686 384.275 198.686 372.568Z" fill="#2C63FA"/>
</g>
<g id="gray-cricles1">
<path id="gray4" d="M48.4882 116.904C48.4882 105.198 37.6337 95.7074 24.2441 95.7074C10.8544 95.7074 0 105.198 0 116.904C0 128.611 10.8544 138.101 24.2441 138.101C37.6337 138.101 48.4882 128.611 48.4882 116.904Z" fill="#E6E6E6"/>
<path id="gray1" d="M48.4882 590.078C48.4882 578.372 37.6337 568.882 24.2441 568.882C10.8544 568.882 0 578.372 0 590.078C0 601.785 10.8544 611.275 24.2441 611.275C37.6337 611.275 48.4882 601.785 48.4882 590.078Z" fill="#E6E6E6"/>
</g>
</g>
</svg>
